<?xml version="1.0" encoding="UTF-8" standalone="no"?>
<!DOCTYPE svg PUBLIC "-//W3C//DTD SVG 1.1//EN" "http://www.w3.org/Graphics/SVG/1.1/DTD/svg11.dtd">
<svg width="100%" height="100%" viewBox="0 0 1025 1258" version="1.1" xmlns="http://www.w3.org/2000/svg" xmlns:xlink="http://www.w3.org/1999/xlink" xml:space="preserve" xmlns:serif="http://www.serif.com/" style="fill-rule:evenodd;clip-rule:evenodd;stroke-linecap:round;stroke-linejoin:round;stroke-miterlimit:1.5;">
    <g transform="matrix(1,0,0,1,-737.919,-621.478)">
        <g transform="matrix(1,0,0,1,-190.024,471.463)">
            <g transform="matrix(1,0,0,1,122.993,1391.33)">
                <g id="phone-bottom" serif:id="phone bottom" transform="matrix(1,0,0,1,0,-619.223)">
                    <path d="M815.33,479.128L815.33,70.351C809.463,69.613 804.949,64.642 804.949,58.568L804.949,-295.852C804.949,-301.926 809.463,-306.899 815.33,-307.637L815.33,-466.267C815.33,-552.592 878.198,-622.087 956.29,-622.087L956.29,-622.096L1676.33,-622.096C1754.42,-622.096 1817.29,-552.6 1817.29,-466.276L1817.29,-178.636C1823.85,-178.624 1829.11,-176.91 1829.11,-174.778L1829.11,-59.708C1829.11,-57.577 1823.85,-55.86 1817.29,-55.849L1817.29,479.128C1817.29,565.451 1754.42,634.948 1676.33,634.948L956.29,634.948C878.199,634.948 815.33,565.452 815.33,479.128ZM1208.26,526.872C1189.21,526.872 1173.88,542.208 1173.88,561.255C1173.88,580.302 1189.21,595.636 1208.26,595.636L1424.37,595.636C1443.42,595.636 1458.75,580.302 1458.75,561.255C1458.75,542.208 1443.42,526.872 1424.37,526.872L1208.26,526.872ZM1087.94,-554.874C1081.2,-554.874 1075.66,-549.329 1075.66,-542.591C1075.66,-535.852 1081.2,-530.306 1087.94,-530.306C1094.68,-530.307 1100.23,-535.852 1100.23,-542.591C1100.23,-549.329 1094.68,-554.874 1087.94,-554.874ZM1171.42,-548.413C1152.37,-548.413 1137.04,-546.222 1137.04,-543.501C1137.04,-540.78 1152.37,-538.591 1171.42,-538.591L1461.21,-538.591C1480.26,-538.591 1495.59,-540.78 1495.59,-543.501C1495.59,-546.222 1480.26,-548.413 1461.21,-548.413L1171.42,-548.413ZM1616.27,-567.884C1605.49,-567.884 1596.62,-559.015 1596.62,-548.238C1596.62,-537.46 1605.49,-528.592 1616.27,-528.592C1627.05,-528.592 1635.92,-537.46 1635.92,-548.238C1635.92,-559.015 1627.05,-567.884 1616.27,-567.884ZM1546.62,-558.237C1541.14,-558.237 1536.62,-553.723 1536.62,-548.237C1536.62,-542.752 1541.14,-538.237 1546.62,-538.237C1552.11,-538.237 1556.62,-542.752 1556.62,-548.237C1556.62,-553.723 1552.11,-558.237 1546.62,-558.237Z"/>
                </g>
                <g>
                    <g transform="matrix(1,0,0,1,0,-1447.6)">
                        <path d="M1171.42,279.964C1152.37,279.964 1137.04,282.155 1137.04,284.876C1137.04,287.597 1152.37,289.786 1171.42,289.786L1461.21,289.786C1480.26,289.786 1495.59,287.597 1495.59,284.876C1495.59,282.155 1480.26,279.964 1461.21,279.964L1171.42,279.964Z" style="fill:white;stroke:white;stroke-width:9.5px;"/>
                    </g>
                    <g transform="matrix(1,0,0,1,0,-1447.6)">
                        <path d="M1087.94,273.503C1081.2,273.503 1075.66,279.048 1075.66,285.786C1075.66,292.525 1081.2,298.071 1087.94,298.071C1094.68,298.07 1100.23,292.525 1100.23,285.786C1100.23,279.048 1094.68,273.503 1087.94,273.503Z" style="fill:white;stroke:white;stroke-width:9.5px;"/>
                    </g>
                    <g transform="matrix(1,0,0,1,0,-1447.6)">
                        <path d="M1546.62,270.14C1541.14,270.14 1536.62,274.654 1536.62,280.14C1536.62,285.625 1541.14,290.14 1546.62,290.14C1552.11,290.14 1556.62,285.625 1556.62,280.14C1556.62,274.654 1552.11,270.14 1546.62,270.14Z" style="fill:white;stroke:white;stroke-width:9.5px;"/>
                    </g>
                    <g transform="matrix(1,0,0,1,0,-1447.6)">
                        <path d="M1616.27,260.493C1605.49,260.493 1596.62,269.362 1596.62,280.139C1596.62,290.916 1605.49,299.785 1616.27,299.785C1627.05,299.785 1635.92,290.916 1635.92,280.139C1635.92,269.362 1627.05,260.493 1616.27,260.493Z" style="fill:white;stroke:white;stroke-width:9.5px;"/>
                    </g>
                    <circle id="camera" cx="1704.1" cy="-1145" r="7.5" style="fill:white;"/>
                </g>
                <g transform="matrix(1,0,0,1,0,-619.223)">
                    <path d="M1208.26,526.872C1189.21,526.872 1173.88,542.208 1173.88,561.255C1173.88,580.302 1189.21,595.636 1208.26,595.636L1424.37,595.636C1443.42,595.636 1458.75,580.302 1458.75,561.255C1458.75,542.208 1443.42,526.872 1424.37,526.872L1208.26,526.872Z" style="stroke:white;stroke-width:9.5px;stroke-linecap:butt;stroke-miterlimit:2;"/>
                </g>
                <g id="CCXT" transform="matrix(1,0,0,1,67.0305,-1862.8)">
                    <path d="M1087.83,1527.58L1195.94,1527.58L1195.94,1635.69L1087.83,1635.69L1087.83,1527.58ZM979.722,1527.58L979.722,1635.69L871.611,1635.69L871.611,1527.58L979.722,1527.58ZM979.722,1419.46L1087.83,1419.46L1087.83,1527.58L979.722,1527.58L979.722,1419.46ZM1087.83,1419.46L1087.83,1311.35L1195.94,1311.35L1195.94,1419.46L1087.83,1419.46ZM979.722,1419.46L871.611,1419.46L871.611,1311.35L979.722,1311.35L979.722,1419.46ZM871.611,1203.24L871.611,878.908L1195.94,878.908L1195.94,987.019L979.722,987.019L979.722,1095.13L1195.94,1095.13L1195.94,1203.24L871.611,1203.24ZM1304.06,1203.24L1304.06,878.908L1628.39,878.908L1628.39,987.019L1412.17,987.019L1412.17,1095.13L1628.39,1095.13L1628.39,1203.24L1304.06,1203.24ZM1412.17,1419.46L1304.06,1419.46L1304.06,1311.35L1520.28,1311.35L1628.39,1311.35L1628.39,1419.46L1520.28,1419.46L1520.28,1635.69L1412.17,1635.69L1412.17,1527.58L1412.17,1419.46Z" style="fill:white;"/>
                </g>
            </g>
        </g>
    </g>
</svg>
